<?xml version="1.0" encoding="UTF-8"?>
<svg version="1.1" xmlns="http://www.w3.org/2000/svg" width="192" height="192">
<path d="M0 0 C7.59 0 15.18 0 23 0 C27 8 27 8 28 12 C29.98 8.04 31.96 4.08 34 0 C43.18067446 -0.41730338 49.06142234 -0.35646394 56.0546875 5.8125 C59.79600594 9.65264572 62.46136951 13.56843998 64.65625 18.453125 C65.16945801 19.59515381 65.68266602 20.73718262 66.21142578 21.91381836 C69.99432808 30.52008967 73.68585679 39.16575075 77.375 47.8125 C78.21467361 49.77676545 79.05451611 51.74095871 79.89453125 53.70507812 C81.93163366 58.4692229 83.96645446 63.23433598 86 68 C88.24628632 65.25235428 88.24628632 65.25235428 87.94140625 62.48828125 C86.5710708 57.41064824 84.26458053 52.88967511 81.9375 48.1875 C81.00762394 46.28588444 80.07915706 44.38357892 79.15234375 42.48046875 C78.73976318 41.64410889 78.32718262 40.80774902 77.90209961 39.94604492 C77 38 77 38 77 37 C84.92 37 92.84 37 101 37 C102.546875 40.3825 104.09375 43.765 105.6875 47.25 C111.06883539 59.00267217 116.50625839 70.72864054 121.95703125 82.44921875 C122.70267334 84.05869385 122.70267334 84.05869385 123.46337891 85.70068359 C124.53933048 88.0108853 125.62407938 90.31518668 126.72021484 92.61572266 C127.27016113 93.78022949 127.82010742 94.94473633 128.38671875 96.14453125 C128.88776123 97.19616455 129.38880371 98.24779785 129.9050293 99.33129883 C131 102 131 102 131 105 C131.66 105 132.32 105 133 105 C133.11859375 104.30003906 133.2371875 103.60007812 133.359375 102.87890625 C134.05662293 99.74554206 135.07967415 96.92627519 136.25 93.9375 C136.84554687 92.40416016 136.84554687 92.40416016 137.453125 90.83984375 C139.13412648 86.62215381 140.89787879 82.43891839 142.6484375 78.24975586 C145.41448096 71.59896026 148.11769553 64.92224867 150.81762695 58.24438477 C152.91126696 53.07629722 155.01126705 47.91896218 157.26953125 42.8203125 C162.26035574 32.29557299 162.26035574 32.29557299 162 21 C160.33500911 17.69661551 158.32037056 14.87202729 156 12 C155.2575 11.05125 154.515 10.1025 153.75 9.125 C153.1725 8.42375 152.595 7.7225 152 7 C150 4 150 4 150 0 C158.58 0 167.16 0 176 0 C176 5.89899008 175.90634796 8.1033073 173.83984375 13.17578125 C173.37916504 14.32498047 172.91848633 15.47417969 172.44384766 16.65820312 C171.94675293 17.86412109 171.4496582 19.07003906 170.9375 20.3125 C170.42894693 21.57046746 169.92163109 22.82893576 169.41552734 24.08789062 C168.41167247 26.58232154 167.40210027 29.07415353 166.38916016 31.56494141 C164.32240004 36.67554156 162.34509376 41.81922464 160.37084961 46.96606445 C158.86443848 50.86240206 157.28851942 54.72449244 155.67578125 58.578125 C151.36576325 68.87948834 147.24798246 79.25893938 143.1348877 89.64013672 C141.7213538 93.20351178 140.28240763 96.7548015 138.81640625 100.296875 C138.25198402 101.69766695 137.68811024 103.09868012 137.125 104.5 C136.65320313 105.6446875 136.18140625 106.789375 135.6953125 107.96875 C134.60042121 111.53568 134.60042121 111.53568 137 117 C129.41 117 121.82 117 114 117 C112.84242188 114.54046875 111.68484375 112.0809375 110.4921875 109.546875 C109.3505989 107.12386372 108.20852485 104.70108181 107.06640625 102.27832031 C106.28237168 100.61449612 105.49882957 98.95043977 104.71582031 97.28613281 C100.25266119 87.80049285 95.75536471 78.34363023 91 69 C90.505 70.485 90.505 70.485 90 72 C89.34 72 88.68 72 88 72 C88.22328476 72.50254807 88.44656952 73.00509613 88.67662048 73.52287292 C91.00233391 78.76004459 93.32095152 84.00031554 95.63549805 89.24243164 C96.49989648 91.19766103 97.366093 93.15209653 98.23413086 95.10571289 C99.48245726 97.91605503 100.72426157 100.72920102 101.96484375 103.54296875 C102.35341049 104.41398727 102.74197723 105.2850058 103.14231873 106.18241882 C103.68276573 107.41312859 103.68276573 107.41312859 104.23413086 108.66870117 C104.55167831 109.38595871 104.86922577 110.10321625 105.19639587 110.84220886 C106 113 106 113 107 118 C100.4 118 93.8 118 87 118 C83.04 109.585 83.04 109.585 79 101 C74.21417472 108.7226499 74.21417472 108.7226499 76 117 C68.41 117 60.82 117 53 117 C48.41275868 107.25211219 43.95352748 97.46049345 39.6015625 87.60546875 C37.79657008 82.73785568 37.79657008 82.73785568 33.3515625 80.4921875 C19.36846497 75.30561501 19.36846497 75.30561501 5 77.1875 C2.04538182 79.86512273 0.55871163 82.56331294 -0.875 86.25 C-1.07457275 90.64060057 -0.11599448 94.1463252 2 98 C4.77425079 100.97535819 7.83024945 103.46190264 11 106 C12.726791 107.6169043 13.88717522 108.78845354 15 110.875 C15 113 15 113 13.296875 115.609375 C9.69728779 119.05538321 5.4504026 118.53781526 0.72265625 118.48828125 C-0.42332031 118.45089844 -1.56929687 118.41351563 -2.75 118.375 C-4.49216797 118.35373047 -4.49216797 118.35373047 -6.26953125 118.33203125 C-14.81794085 118.18205915 -14.81794085 118.18205915 -16 117 C-18.02802614 107.34654043 -12.71446282 98.9489576 -8.5625 90.625 C-7.81951946 89.09887671 -7.07872724 87.57168617 -6.34008789 86.04345703 C-4.8888874 83.04312926 -3.43029424 80.04660357 -1.96582031 77.05273438 C0.47776642 72.03840924 2.79640556 66.97177719 5.0625 61.875 C5.40531006 61.10768555 5.74812012 60.34037109 6.10131836 59.54980469 C8.99775216 53.04578133 11.84976096 46.52200159 14.6875 39.9921875 C15.42418236 38.31272713 16.17984294 36.64031412 17 35 C16.34 35 15.68 35 15 35 C12.85897547 30.33909589 10.72285932 25.67598655 8.59130859 21.01074219 C7.86512378 19.42320795 7.13758924 17.83629041 6.40869141 16.25 C5.36267346 13.97295413 4.32149146 11.69375197 3.28125 9.4140625 C2.95314331 8.70255035 2.62503662 7.99103821 2.2869873 7.25796509 C0 2.22774341 0 2.22774341 0 0 Z M35 4 C33.96966118 6.12040742 32.95097146 8.24647908 31.9375 10.375 C31.36902344 11.55835938 30.80054688 12.74171875 30.21484375 13.9609375 C29.61349609 15.46527344 29.61349609 15.46527344 29 17 C29.91718543 19.02328647 29.91718543 19.02328647 31.328125 20.6015625 C33.67609047 23.96990548 35.14113474 27.60943668 36.75 31.375 C39.19616603 36.99712745 41.71190889 42.53892246 44.5 48 C47.29454418 53.49250273 49.875092 59.05485271 52.375 64.6875 C52.72111328 65.46673828 53.06722656 66.24597656 53.42382812 67.04882812 C54.73173529 70.01848507 55.97285924 72.91857773 57 76 C55.35 76 53.7 76 52 76 C52 76.33 52 76.66 52 77 C55.94727588 77.17942163 58.5980513 77.09350689 62 75 C62 74.34 62 73.68 62 73 C62.66 73 63.32 73 64 73 C65.72329233 68.4733479 64.29874406 65.59262644 62.44729614 61.4161377 C62.05476654 60.56724976 61.66223694 59.71836182 61.2578125 58.84375 C60.85601776 57.94619995 60.45422302 57.0486499 60.04025269 56.12390137 C58.74770114 53.24342732 57.4370118 50.37165498 56.125 47.5 C54.85804645 44.69550504 53.59491593 41.88930948 52.33197021 39.08300781 C51.49170252 37.21702899 50.64978621 35.35179166 49.80621338 33.48730469 C45.39491574 23.71929465 41.18119695 13.86829204 37 4 C36.34 4 35.68 4 35 4 Z M26 14 C27 16 27 16 27 16 Z M25 16 C26 18 26 18 26 18 Z M24 18 C25 20 25 20 25 20 Z M28 19 C29 21 29 21 29 21 Z M27 21 C28 23 28 23 28 23 Z M22 23 C23 25 23 25 23 25 Z M21 25 C22 27 22 27 22 27 Z M25 26 C26 28 26 28 26 28 Z M20 27 C21 29 21 29 21 29 Z M24 28 C25 30 25 30 25 30 Z M19 29 C20 31 20 31 20 31 Z M23 30 C24 32 24 32 24 32 Z M18 31 C19 33 19 33 19 33 Z M22 32 C23 34 23 34 23 34 Z M21 34 C22 36 22 36 22 36 Z M20 37 C19.67 38.32 19.34 39.64 19 41 C19.66 39.68 20.32 38.36 21 37 C20.67 37 20.34 37 20 37 Z M18 41 C16.53678269 44.20612766 15.08031235 47.41527735 13.625 50.625 C13.2125 51.52863281 12.8 52.43226562 12.375 53.36328125 C10.34313354 57.85305069 8.42915698 62.27278845 7 67 C7.825 66.67 8.65 66.34 9.5 66 C16.67946834 63.94872333 22.93463688 65.16823919 30 67 C28.28137532 61.31531835 25.8358325 56.01576119 23.375 50.625 C22.95476563 49.69816406 22.53453125 48.77132812 22.1015625 47.81640625 C21.07035118 45.54305401 20.03643137 43.27097594 19 41 C18.67 41 18.34 41 18 41 Z M33 68 C34.98 68.99 34.98 68.99 37 70 C36.67 69.34 36.34 68.68 36 68 C35.01 68 34.02 68 33 68 Z M87 70 C88 72 88 72 88 72 Z M66 75 C65.319375 76.1446875 65.319375 76.1446875 64.625 77.3125 C62.99474531 80.00869044 61.60264108 81.29482136 59 83 C59.99 83 60.98 83 62 83 C62.08121094 83.64324219 62.16242188 84.28648438 62.24609375 84.94921875 C63.29288973 89.185217 65.16277812 92.89821985 67.0625 96.8125 C67.43955078 97.60076172 67.81660156 98.38902344 68.20507812 99.20117188 C69.13170161 101.13652473 70.06517467 103.06859549 71 105 C73.79233071 102.44722581 74.48967606 100.77639718 75 97 C75.66 97 76.32 97 77 97 C74.66062389 89.33204498 71.45231194 82.22862726 68 75 C67.34 75 66.68 75 66 75 Z M41 83 C41 83.33 41 83.66 41 84 C43.31 84 45.62 84 48 84 C48 83.67 48 83.34 48 83 C45.69 83 43.38 83 41 83 Z M55 83 C59 84 59 84 59 84 Z M49 84 C49 84.33 49 84.66 49 85 C50.65 85 52.3 85 54 85 C54 84.67 54 84.34 54 84 C52.35 84 50.7 84 49 84 Z M-5 91 C-6.29592249 93.70636836 -7.58683165 96.4149434 -8.875 99.125 C-9.23980469 99.88554688 -9.60460937 100.64609375 -9.98046875 101.4296875 C-11.93814983 105.55861487 -13.66922972 109.61546214 -15 114 C-10.73998093 116.84001271 -7.07045137 116.33022099 -2.0625 116.3125 C-0.7022168 116.33666992 -0.7022168 116.33666992 0.68554688 116.36132812 C1.99942383 116.36229492 1.99942383 116.36229492 3.33984375 116.36328125 C4.13769287 116.36626221 4.93554199 116.36924316 5.75756836 116.37231445 C8.50981988 115.9153538 9.9134121 114.80396391 12 113 C10.61083117 109.66599481 9.19406179 108.2045526 6.1875 106.25 C0.58445906 102.24346981 -1.99142799 97.03438962 -5 91 Z " fill="#020203" transform="translate(16,0)"/>
<path d="M0 0 C8.58 0 17.16 0 26 0 C26 5.89899008 25.90634796 8.1033073 23.83984375 13.17578125 C23.14882568 14.89958008 23.14882568 14.89958008 22.44384766 16.65820312 C21.94675293 17.86412109 21.4496582 19.07003906 20.9375 20.3125 C20.42894693 21.57046746 19.92163109 22.82893576 19.41552734 24.08789062 C18.41167247 26.58232154 17.40210027 29.07415353 16.38916016 31.56494141 C14.32240004 36.67554156 12.34509376 41.81922464 10.37084961 46.96606445 C8.86443848 50.86240206 7.28851942 54.72449244 5.67578125 58.578125 C1.36576325 68.87948834 -2.75201754 79.25893938 -6.8651123 89.64013672 C-8.2786462 93.20351178 -9.71759237 96.7548015 -11.18359375 100.296875 C-11.74801598 101.69766695 -12.31188976 103.09868012 -12.875 104.5 C-13.34679687 105.6446875 -13.81859375 106.789375 -14.3046875 107.96875 C-15.39957879 111.53568 -15.39957879 111.53568 -13 117 C-20.59 117 -28.18 117 -36 117 C-37.15757812 114.54046875 -38.31515625 112.0809375 -39.5078125 109.546875 C-40.6494011 107.12386372 -41.79147515 104.70108181 -42.93359375 102.27832031 C-43.71762832 100.61449612 -44.50117043 98.95043977 -45.28417969 97.28613281 C-49.74733881 87.80049285 -54.24463529 78.34363023 -59 69 C-59.33 69.99 -59.66 70.98 -60 72 C-60.66 72 -61.32 72 -62 72 C-62.77977749 69.05417391 -63.03905502 67.1792018 -62.38305664 64.16918945 C-61.92627115 60.39001005 -62.61232866 58.78733472 -64.30859375 55.41796875 C-64.80810547 54.40412109 -65.30761719 53.39027344 -65.82226562 52.34570312 C-66.35529297 51.30349609 -66.88832031 50.26128906 -67.4375 49.1875 C-68.47897415 47.09820898 -69.51939932 45.00839462 -70.55859375 42.91796875 C-71.02579834 41.99781982 -71.49300293 41.0776709 -71.97436523 40.12963867 C-73 38 -73 38 -73 37 C-65.08 37 -57.16 37 -49 37 C-47.453125 40.3825 -45.90625 43.765 -44.3125 47.25 C-38.93116461 59.00267217 -33.49374161 70.72864054 -28.04296875 82.44921875 C-27.54587402 83.52220215 -27.0487793 84.59518555 -26.53662109 85.70068359 C-25.46066952 88.0108853 -24.37592062 90.31518668 -23.27978516 92.61572266 C-22.72983887 93.78022949 -22.17989258 94.94473633 -21.61328125 96.14453125 C-21.11223877 97.19616455 -20.61119629 98.24779785 -20.0949707 99.33129883 C-19 102 -19 102 -19 105 C-18.34 105 -17.68 105 -17 105 C-16.88140625 104.30003906 -16.7628125 103.60007812 -16.640625 102.87890625 C-15.94337707 99.74554206 -14.92032585 96.92627519 -13.75 93.9375 C-13.35296875 92.91527344 -12.9559375 91.89304687 -12.546875 90.83984375 C-10.86587352 86.62215381 -9.10212121 82.43891839 -7.3515625 78.24975586 C-4.58551904 71.59896026 -1.88230447 64.92224867 0.81762695 58.24438477 C2.91126696 53.07629722 5.01126705 47.91896218 7.26953125 42.8203125 C12.26035574 32.29557299 12.26035574 32.29557299 12 21 C10.33500911 17.69661551 8.32037056 14.87202729 6 12 C5.2575 11.05125 4.515 10.1025 3.75 9.125 C3.1725 8.42375 2.595 7.7225 2 7 C0 4 0 4 0 0 Z " fill="#C8982D" transform="translate(166,0)"/>
<path d="M0 0 C2.4314861 2.19257142 3.72071254 4.1792379 5.015625 7.17578125 C5.5561853 8.40675537 5.5561853 8.40675537 6.10766602 9.66259766 C6.48463623 10.53706543 6.86160645 11.4115332 7.25 12.3125 C9.89317798 18.32416074 12.57326639 24.277097 15.5625 30.125 C18.33400701 35.58343752 20.92767216 41.10381312 23.4375 46.6875 C23.79207275 47.46689941 24.14664551 48.24629883 24.51196289 49.04931641 C24.83672607 49.77940918 25.16148926 50.50950195 25.49609375 51.26171875 C25.93199829 52.23564575 25.93199829 52.23564575 26.37670898 53.22924805 C27 55 27 55 27 58 C19.07586048 57.86098001 13.2231632 55.04348905 6.2578125 51.59375 C3.10001057 49.95954075 3.10001057 49.95954075 0 49 C-1.02734375 47.3293457 -1.02734375 47.3293457 -1.9375 45.17578125 C-2.27523437 44.39396484 -2.61296875 43.61214844 -2.9609375 42.80664062 C-3.30382813 41.98357422 -3.64671875 41.16050781 -4 40.3125 C-4.68626699 38.70390049 -5.37374404 37.09581663 -6.0625 35.48828125 C-6.38758545 34.71709961 -6.7126709 33.94591797 -7.04760742 33.15136719 C-7.87646847 31.27904635 -8.82901706 29.4624521 -9.80078125 27.66015625 C-11 25 -11 25 -10.1875 21.125 C-7.35922543 13.85408176 -3.57671615 6.92404671 0 0 Z " fill="#F4D977" transform="translate(46,18)"/>
<path d="M0 0 C1.0621875 0.08378906 2.124375 0.16757813 3.21875 0.25390625 C4.64580379 0.35717988 6.07288891 0.46002128 7.5 0.5625 C8.19609375 0.61857422 8.8921875 0.67464844 9.609375 0.73242188 C14.56370848 1.07647281 19.08853739 0.74667506 24 0 C24.2673999 0.60062256 24.5347998 1.20124512 24.81030273 1.82006836 C26.01700028 4.52694194 27.22720141 7.23223472 28.4375 9.9375 C28.85837891 10.88302734 29.27925781 11.82855469 29.71289062 12.80273438 C30.11572266 13.70185547 30.51855469 14.60097656 30.93359375 15.52734375 C31.4913147 16.77632446 31.4913147 16.77632446 32.06030273 18.05053711 C32.84730109 19.95727812 32.84730109 19.95727812 34 21 C34.99 18.69 35.98 16.38 37 14 C37.99 14.33 38.98 14.66 40 15 C39.57849641 18.02077574 39.18688928 20.60545597 37.875 23.375 C36.51788117 26.81715056 36.51788117 26.81715056 38 34 C30.41 34 22.82 34 15 34 C11.11299743 25.74011954 7.28001395 17.46261349 3.5625 9.125 C3.03172852 7.93898193 3.03172852 7.93898193 2.49023438 6.72900391 C0 1.12104541 0 1.12104541 0 0 Z " fill="#D5AC43" transform="translate(54,83)"/>
<path d="M0 0 C7.59 0 15.18 0 23 0 C27.74509804 9.49019608 27.74509804 9.49019608 27 14 C25.76499999 17.53696269 24.25895279 20.91377653 22.6875 24.3125 C22.28337891 25.23095703 21.87925781 26.14941406 21.46289062 27.09570312 C19.16914646 32.14194029 19.16914646 32.14194029 18 34 C16.515 34.495 16.515 34.495 15 35 C12.85897547 30.33909589 10.72285932 25.67598655 8.59130859 21.01074219 C7.86512378 19.42320795 7.13758924 17.83629041 6.40869141 16.25 C5.36267346 13.97295413 4.32149146 11.69375197 3.28125 9.4140625 C2.95314331 8.70255035 2.62503662 7.99103821 2.2869873 7.25796509 C0 2.22774341 0 2.22774341 0 0 Z " fill="#BC881C" transform="translate(16,0)"/>
<path d="M0 0 C1.98 0 3.96 0 6 0 C7.17400588 3.43503772 8.33793209 6.87340714 9.5 10.3125 C9.83386719 11.28896484 10.16773437 12.26542969 10.51171875 13.27148438 C10.82753906 14.20927734 11.14335938 15.14707031 11.46875 16.11328125 C11.76201172 16.97735596 12.05527344 17.84143066 12.35742188 18.73168945 C13 21 13 21 13 24 C13.66 24 14.32 24 15 24 C15.226875 22.824375 15.45375 21.64875 15.6875 20.4375 C17.22010836 13.45686044 19.671259 6.74623825 22 0 C23.98 0 25.96 0 28 0 C31.19198847 7.52154729 33.69138424 15.16544226 36 23 C37.7887806 20.3168291 38.53605927 18.60865045 39.40234375 15.5859375 C39.65306641 14.74289063 39.90378906 13.89984375 40.16210938 13.03125 C40.68083389 11.25425921 41.1938205 9.47558382 41.70117188 7.6953125 C41.95318359 6.85484375 42.20519531 6.014375 42.46484375 5.1484375 C42.687771 4.37677246 42.91069824 3.60510742 43.14038086 2.81005859 C43.56589233 1.91407959 43.56589233 1.91407959 44 1 C44.99 0.67 45.98 0.34 47 0 C45.87087603 6.88765621 44.03493206 13.41814817 41.9375 20.0625 C41.6679248 20.92012939 41.39834961 21.77775879 41.12060547 22.66137695 C39.13133837 28.86866163 39.13133837 28.86866163 38 30 C36.02 30 34.04 30 32 30 C29.36 22.74 26.72 15.48 24 8 C22.22881108 10.65678338 21.41388336 12.46372565 20.4921875 15.44921875 C20.22792969 16.29677734 19.96367188 17.14433594 19.69140625 18.01757812 C19.42199219 18.89865234 19.15257813 19.77972656 18.875 20.6875 C18.45927734 22.02651367 18.45927734 22.02651367 18.03515625 23.39257812 C17.35243896 25.59375282 16.67423334 27.79621473 16 30 C13.69 30 11.38 30 9 30 C7.71248643 26.21165112 6.43090931 22.42135154 5.15478516 18.62915039 C4.71988772 17.33953841 4.28337578 16.05046971 3.84521484 14.76196289 C3.21547426 12.9091547 2.59202743 11.05421111 1.96875 9.19921875 C1.59169922 8.08377686 1.21464844 6.96833496 0.82617188 5.8190918 C0 3 0 3 0 0 Z " fill="#020203" transform="translate(107,142)"/>
<path d="M0 0 C1.32 0 2.64 0 4 0 C5.98 0 7.96 0 10 0 C10 10.89 10 21.78 10 33 C8.02 33 6.04 33 4 33 C4 29.7 4 26.4 4 23 C3.175 23.350625 2.35 23.70125 1.5 24.0625 C-2.64951821 25.17397809 -5.91804656 25.4698392 -10 24 C-12.65412381 21.75772299 -14.44401258 19.11197484 -16 16 C-16.40156418 10.7796656 -15.90046338 7.40070306 -13 3 C-8.80028266 -0.59975772 -5.28005722 -0.2514313 0 0 Z M-6.625 4.375 C-9.38077592 7.42085759 -9.92197521 8.18854216 -10.3125 12.25 C-9.9439843 16.6721884 -8.86805146 18.65393996 -6 22 C-4.12907319 23.23901711 -4.12907319 23.23901711 -2 23 C0.73183699 21.84425989 0.73183699 21.84425989 3 20 C4.44768018 15.65695947 4.65696837 11.53380371 4 7 C1.89400826 3.80671116 1.89400826 3.80671116 -1 2 C-4.21922387 1.66454334 -4.21922387 1.66454334 -6.625 4.375 Z " fill="#020203" transform="translate(83,148)"/>
<path d="M0 0 C1.32 0 2.64 0 4 0 C5.98 0 7.96 0 10 0 C10 7.92 10 15.84 10 24 C7.36 24 4.72 24 2 24 C0.59921363 24.17190413 -0.79934977 24.37045646 -2.1875 24.625 C-6.07584512 25.00746018 -7.71034202 25.01034654 -11 23 C-15.35086517 18.16570537 -16.33137199 15.51698248 -16 9 C-15 6.0625 -15 6.0625 -14 4 C-13.34 4 -12.68 4 -12 4 C-12 3.34 -12 2.68 -12 2 C-8.13800167 -0.57466555 -4.44209927 -0.15616755 0 0 Z M-9 6 C-10.07709952 10.38020473 -10.42512636 13.63556578 -9 17.9375 C-7.25 21.33333333 -7.25 21.33333333 -3.5 22.0625 C0.11538937 22.3128976 0.11538937 22.3128976 3 20 C4.44756445 15.65730666 4.52029475 11.53812644 4 7 C2.53651397 3.81119393 2.53651397 3.81119393 0 2 C-4.41017955 1.0077096 -6.47283316 2.38976166 -9 6 Z " fill="#020203" transform="translate(169,148)"/>
<path d="M0 0 C1.32 0 2.64 0 4 0 C5.98 0 7.96 0 10 0 C10 7.92 10 15.84 10 24 C7.36 24 4.72 24 2 24 C0.61944586 24.19290571 -0.75844584 24.41241442 -2.125 24.6875 C-6.55318277 25.04461151 -8.3531466 24.45950578 -12 22 C-15.34338303 18.77190604 -15.76810401 15.56062118 -16 11 C-15.52342395 8.55039908 -14.82175423 6.36858571 -14 4 C-13.34 4 -12.68 4 -12 4 C-12 3.34 -12 2.68 -12 2 C-8.13800167 -0.57466555 -4.44209927 -0.15616755 0 0 Z M-9 6 C-10.07709952 10.38020473 -10.42512636 13.63556578 -9 17.9375 C-7.25 21.33333333 -7.25 21.33333333 -3.5 22.0625 C0.11538937 22.3128976 0.11538937 22.3128976 3 20 C4.44756445 15.65730666 4.52029475 11.53812644 4 7 C2.53651397 3.81119393 2.53651397 3.81119393 0 2 C-4.41017955 1.0077096 -6.47283316 2.38976166 -9 6 Z " fill="#020203" transform="translate(54,148)"/>
<path d="M0 0 C1.4540625 0.0309375 1.4540625 0.0309375 2.9375 0.0625 C4.48955639 3.69044611 6.03769506 7.32003632 7.58227539 10.95117188 C8.36594607 12.79124125 9.15268206 14.63000414 9.93945312 16.46875 C10.43251953 17.62890625 10.92558594 18.7890625 11.43359375 19.984375 C11.88919678 21.05268555 12.3447998 22.12099609 12.81420898 23.22167969 C13.72029797 25.51319271 14.42792767 27.65914396 14.9375 30.0625 C12.9575 30.0625 10.9775 30.0625 8.9375 30.0625 C8.61136719 29.09054688 8.28523438 28.11859375 7.94921875 27.1171875 C6.17839692 23.64930702 6.17839692 23.64930702 2.14453125 23.2578125 C0.68045894 23.20481441 -0.7849777 23.18238202 -2.25 23.1875 C-2.99958984 23.166875 -3.74917969 23.14625 -4.52148438 23.125 C-6.36800787 23.07795482 -8.21538219 23.06675113 -10.0625 23.0625 C-10.3925 24.7125 -10.7225 26.3625 -11.0625 28.0625 C-11.3925 28.0625 -11.7225 28.0625 -12.0625 28.0625 C-12.56666433 21.14024378 -10.9571569 16.39447552 -8.125 10.125 C-7.56522461 8.83239258 -7.56522461 8.83239258 -6.99414062 7.51367188 C-3.74141355 0.07635538 -3.74141355 0.07635538 0 0 Z M-2.0625 5.0625 C-2.88525672 6.59871735 -3.69522577 8.14178632 -4.5 9.6875 C-5.17869141 10.97527344 -5.17869141 10.97527344 -5.87109375 12.2890625 C-7.3799378 15.49774382 -7.3799378 15.49774382 -8.0625 21.0625 C-3.7725 21.0625 0.5175 21.0625 4.9375 21.0625 C3.16946827 15.59002083 1.28315002 10.31228815 -1.0625 5.0625 C-1.3925 5.0625 -1.7225 5.0625 -2.0625 5.0625 Z " fill="#020203" transform="translate(12.0625,141.9375)"/>
<path d="M0 0 C2.27701975 2.10689759 3.81624074 4.12517813 5.25 6.875 C5.78367187 7.86113281 5.78367187 7.86113281 6.328125 8.8671875 C7.26938555 11.85514251 7.15107747 13.043143 6 16 C3.83541419 18.63881934 1.41061542 20.96509524 -1.0625 23.3125 C-1.72572266 23.95767578 -2.38894531 24.60285156 -3.07226562 25.26757812 C-4.70617671 26.85447018 -6.34868147 28.43126328 -8 30 C-10.6508573 26.02371405 -10.6508573 26.02371405 -11 23 C-10.21142578 20.54223633 -10.21142578 20.54223633 -8.9453125 17.83203125 C-8.49542969 16.85685547 -8.04554687 15.88167969 -7.58203125 14.87695312 C-7.10121094 13.86568359 -6.62039062 12.85441406 -6.125 11.8125 C-5.65191406 10.78962891 -5.17882813 9.76675781 -4.69140625 8.71289062 C-1.18447205 1.18447205 -1.18447205 1.18447205 0 0 Z " fill="#DBB64C" transform="translate(46,18)"/>
<path d="M0 0 C1.98 0 3.96 0 6 0 C6 10.89 6 21.78 6 33 C4.02 33 2.04 33 0 33 C0 22.11 0 11.22 0 0 Z " fill="#020203" transform="translate(183,139)"/>
<path d="M0 0 C1.98 0 3.96 0 6 0 C6 10.89 6 21.78 6 33 C4.02 33 2.04 33 0 33 C0 22.11 0 11.22 0 0 Z " fill="#020203" transform="translate(29,139)"/>
<path d="M0 0 C0.99 0.33 1.98 0.66 3 1 C3.33 2.65 3.66 4.3 4 6 C1.69 6.33 -0.62 6.66 -3 7 C-3.33 6.34 -3.66 5.68 -4 5 C-4.33 5.66 -4.66 6.32 -5 7 C-5.66 7 -6.32 7 -7 7 C-7 5.35 -7 3.7 -7 2 C-4.69 2 -2.38 2 0 2 C0 1.34 0 0.68 0 0 Z " fill="#A88A2F" transform="translate(116,185)"/>
<path d="M0 0 C0.66 0 1.32 0 2 0 C2.33 1.65 2.66 3.3 3 5 C3.33 4.67 3.66 4.34 4 4 C5.66617115 3.95936168 7.33388095 3.957279 9 4 C9.33 5.32 9.66 6.64 10 8 C6.7 8.33 3.4 8.66 0 9 C0 6.03 0 3.06 0 0 Z " fill="#96691D" transform="translate(156,183)"/>
<path d="M0 0 C3.3 0 6.6 0 10 0 C10 3 10 3 9 5 C5.7 5 2.4 5 -1 5 C-0.67 3.35 -0.34 1.7 0 0 Z " fill="#927221" transform="translate(140,187)"/>
<path d="M0 0 C7.25 0 7.25 0 11 1 C10.34 2.32 9.68 3.64 9 5 C5.7 5 2.4 5 -1 5 C-0.67 3.35 -0.34 1.7 0 0 Z " fill="#AF9447" transform="translate(33,187)"/>
<path d="M0 0 C0.66 0 1.32 0 2 0 C2 1.32 2 2.64 2 4 C3.65 4 5.3 4 7 4 C7.33 5.65 7.66 7.3 8 9 C7.34 9 6.68 9 6 9 C6 8.01 6 7.02 6 6 C2.88214887 6.64644661 2.88214887 6.64644661 2 9 C1.34 9 0.68 9 0 9 C0 6.03 0 3.06 0 0 Z " fill="#93701D" transform="translate(8,183)"/>
<path d="M0 0 C2.64 0 5.28 0 8 0 C8 1.65 8 3.3 8 5 C5.36 5 2.72 5 0 5 C0 3.35 0 1.7 0 0 Z " fill="#A07E2A" transform="translate(23,187)"/>
<path d="M0 0 C0.33 0.66 0.66 1.32 1 2 C2.32 2 3.64 2 5 2 C5 2.99 5 3.98 5 5 C5.66 5 6.32 5 7 5 C7 4.01 7 3.02 7 2 C7.66 2 8.32 2 9 2 C8.67 3.65 8.34 5.3 8 7 C4 7 4 7 2.25 5.5 C1.8375 5.005 1.425 4.51 1 4 C0.67 4.99 0.34 5.98 0 7 C-1.125 2.25 -1.125 2.25 0 0 Z " fill="#85631A" transform="translate(178,185)"/>
<path d="M0 0 C0.66 0 1.32 0 2 0 C4 3 4 3 4 6 C1.69 6.33 -0.62 6.66 -3 7 C-2.25 2.25 -2.25 2.25 0 0 Z " fill="#987629" transform="translate(131,185)"/>
<path d="M0 0 C1.65 0 3.3 0 5 0 C5.33 1.32 5.66 2.64 6 4 C3.69 4.33 1.38 4.66 -1 5 C-0.67 3.35 -0.34 1.7 0 0 Z " fill="#BCAB5D" transform="translate(56,187)"/>
<path d="M0 0 C2.31 0 4.62 0 7 0 C7 1.65 7 3.3 7 5 C6.34 5 5.68 5 5 5 C5 4.01 5 3.02 5 2 C1.88214887 2.64644661 1.88214887 2.64644661 1 5 C0.34 5 -0.32 5 -1 5 C-0.67 3.35 -0.34 1.7 0 0 Z " fill="#B19B4F" transform="translate(78,187)"/>
<path d="M0 0 C1.65 0 3.3 0 5 0 C5.33 1.32 5.66 2.64 6 4 C3.69 4.33 1.38 4.66 -1 5 C-0.67 3.35 -0.34 1.7 0 0 Z " fill="#AB8E42" transform="translate(95,187)"/>
<path d="M0 0 C1.98 0 3.96 0 6 0 C6.33 1.65 6.66 3.3 7 5 C5 4 5 4 3 2 C2.67 2.99 2.34 3.98 2 5 C1.34 5 0.68 5 0 5 C0 3.35 0 1.7 0 0 Z " fill="#C1AD5F" transform="translate(69,187)"/>
<path d="M0 0 C0.66 0 1.32 0 2 0 C2.33 0.66 2.66 1.32 3 2 C3.99 1.34 4.98 0.68 6 0 C5.67 1.65 5.34 3.3 5 5 C3.68 5 2.36 5 1 5 C0.67 3.35 0.34 1.7 0 0 Z " fill="#8E722B" transform="translate(121,187)"/>
<path d="M0 0 C0.66 0 1.32 0 2 0 C2.33 2.64 2.66 5.28 3 8 C2.01 8.33 1.02 8.66 0 9 C0 6.03 0 3.06 0 0 Z " fill="#86671F" transform="translate(156,183)"/>
<path d="M0 0 C1.65 0 3.3 0 5 0 C5.33 0.99 5.66 1.98 6 3 C4.68 2.67 3.36 2.34 2 2 C1.67 2.99 1.34 3.98 1 5 C0.34 5 -0.32 5 -1 5 C-0.67 3.35 -0.34 1.7 0 0 Z " fill="#A58E48" transform="translate(87,187)"/>
<path d="M0 0 C0.66 0 1.32 0 2 0 C2 2.97 2 5.94 2 9 C1.34 9 0.68 9 0 9 C0 6.03 0 3.06 0 0 Z " fill="#9B7215" transform="translate(17,183)"/>
<path d="M0 0 C0.66 0 1.32 0 2 0 C2 2.97 2 5.94 2 9 C1.34 9 0.68 9 0 9 C0 6.03 0 3.06 0 0 Z " fill="#B37D24" transform="translate(136,183)"/>
<path d="M0 0 C0.66 0 1.32 0 2 0 C2 2.97 2 5.94 2 9 C1.34 9 0.68 9 0 9 C0 6.03 0 3.06 0 0 Z " fill="#A09356" transform="translate(49,183)"/>
<path d="M0 0 C0.99 0.33 1.98 0.66 3 1 C3.6875 3.0625 3.6875 3.0625 4 5 C2.35 5 0.7 5 -1 5 C-0.67 3.35 -0.34 1.7 0 0 Z " fill="#96792E" transform="translate(116,185)"/>
<path d="M0 0 C0.99 0 1.98 0 3 0 C3.33 1.65 3.66 3.3 4 5 C2.35 5 0.7 5 -1 5 C-0.67 3.35 -0.34 1.7 0 0 Z " fill="#BBAB58" transform="translate(64,187)"/>
<path d="M0 0 C0.99 0.495 0.99 0.495 2 1 C2 3.64 2 6.28 2 9 C1.34 9 0.68 9 0 9 C0 6.03 0 3.06 0 0 Z " fill="#8D641C" transform="translate(188,183)"/>
<path d="M0 0 C0.33 0 0.66 0 1 0 C1 1.65 1 3.3 1 5 C2.98 5.495 2.98 5.495 5 6 C3.625 7.5 3.625 7.5 2 9 C1.34 9 0.68 9 0 9 C0 6.03 0 3.06 0 0 Z " fill="#82591F" transform="translate(8,183)"/>
<path d="M0 0 C0.99 0 1.98 0 3 0 C3.33 1.65 3.66 3.3 4 5 C2.35 5 0.7 5 -1 5 C-0.67 3.35 -0.34 1.7 0 0 Z " fill="#8F6B1B" transform="translate(172,187)"/>
<path d="M0 0 C0.66 0 1.32 0 2 0 C2 2.31 2 4.62 2 7 C1.34 7 0.68 7 0 7 C0 4.69 0 2.38 0 0 Z " fill="#95701D" transform="translate(20,185)"/>
<path d="M0 0 C0.66 0 1.32 0 2 0 C2 1.65 2 3.3 2 5 C1.34 5 0.68 5 0 5 C0 3.35 0 1.7 0 0 Z " fill="#9D7926" transform="translate(1,187)"/>
<path d="M0 0 C0.33 0 0.66 0 1 0 C1 1.65 1 3.3 1 5 C0.34 4.67 -0.32 4.34 -1 4 C-0.67 2.68 -0.34 1.36 0 0 Z " fill="#B7931D" transform="translate(6,187)"/>
<path d="M0 0 C0.66 0 1.32 0 2 0 C2 0.99 2 1.98 2 3 C1.34 3 0.68 3 0 3 C0 2.01 0 1.02 0 0 Z " fill="#C7BA54" transform="translate(52,183)"/>
<path d="M0 0 C1 4 1 4 1 4 Z " fill="#9B6F17" transform="translate(191,188)"/>
</svg>
